<?xml version="1.0" standalone="no"?>
<!DOCTYPE svg PUBLIC "-//W3C//DTD SVG 20010904//EN"
 "http://www.w3.org/TR/2001/REC-SVG-20010904/DTD/svg10.dtd">
<svg version="1.0" xmlns="http://www.w3.org/2000/svg"
 width="632.000000pt" height="632.000000pt" viewBox="0 0 632.000000 632.000000"
 preserveAspectRatio="xMidYMid meet">
<metadata>
Created by potrace 1.14, written by Peter Selinger 2001-2017
</metadata>
<g transform="translate(0.000000,632.000000) scale(0.100000,-0.100000)"
fill="#000000" stroke="none">
<path d="M3118 5354 c-2 -1 -33 -5 -68 -8 -117 -10 -203 -26 -290 -55 -47 -16
-100 -32 -119 -36 -19 -4 -48 -16 -65 -26 -17 -10 -37 -19 -44 -19 -8 0 -25
-9 -39 -20 -14 -11 -31 -20 -39 -20 -17 0 -178 -94 -227 -132 -21 -17 -55 -42
-75 -56 -41 -27 -41 -27 -129 -112 -35 -33 -63 -64 -63 -69 0 -4 -22 -33 -50
-62 -27 -30 -62 -74 -77 -99 -14 -25 -29 -47 -33 -50 -3 -3 -21 -30 -39 -60
-19 -30 -39 -58 -45 -62 -6 -4 -7 -8 -2 -8 5 0 2 -7 -5 -16 -23 -28 -63 -104
-59 -113 1 -2 -2 -7 -7 -10 -13 -8 -55 -103 -68 -151 -1 -3 -5 -14 -10 -25
-29 -70 -44 -115 -39 -115 4 0 0 -10 -8 -22 -17 -27 -35 -79 -43 -128 -3 -19
-13 -48 -21 -66 -8 -17 -14 -35 -13 -40 4 -13 -12 -116 -22 -141 -4 -12 -11
-49 -14 -82 -3 -33 -10 -72 -15 -86 -6 -15 -10 -37 -10 -50 0 -14 -7 -45 -16
-71 -9 -26 -18 -59 -20 -73 -2 -14 -7 -37 -10 -51 -4 -14 -8 -34 -10 -45 -7
-48 -25 -162 -28 -186 -2 -15 -7 -36 -11 -48 -3 -12 -8 -34 -11 -49 -5 -34 -9
-53 -17 -72 -7 -18 -17 -91 -20 -137 -1 -18 -5 -33 -10 -33 -4 0 -7 -6 -5 -12
1 -10 -8 -69 -17 -98 -15 -52 -28 -99 -31 -115 -2 -11 -6 -32 -10 -47 -3 -15
-5 -30 -5 -33 0 -2 -7 -24 -15 -47 -9 -24 -17 -52 -20 -63 -12 -58 -59 -197
-84 -250 -56 -116 -110 -277 -124 -370 -10 -59 -10 -196 -1 -230 18 -71 97
-175 132 -175 7 0 13 -4 13 -9 0 -5 13 -14 30 -21 17 -7 30 -16 30 -21 0 -5 8
-9 18 -9 11 0 34 -7 52 -16 23 -12 59 -16 129 -16 110 1 197 27 287 86 l51 34
65 -66 c46 -47 89 -79 143 -106 93 -47 110 -51 245 -51 112 0 152 11 254 67
47 25 51 26 65 9 17 -19 115 -61 216 -93 82 -26 225 -34 311 -18 87 16 274
106 274 131 0 17 19 9 52 -22 68 -62 246 -119 376 -119 148 0 240 39 348 147
32 32 33 32 56 14 104 -80 263 -109 415 -76 107 24 208 89 279 179 l21 27 69
-25 c159 -56 372 -18 474 84 48 48 93 154 92 220 -1 99 -3 117 -14 150 -6 19
-12 46 -13 60 -2 39 -35 139 -57 176 -11 19 -17 34 -14 34 4 0 0 14 -9 30 -9
17 -13 30 -10 30 3 0 -1 16 -9 35 -9 20 -15 38 -16 40 0 3 0 6 -1 8 0 1 -2 18
-4 37 -5 58 -13 106 -25 150 -6 23 -13 58 -15 78 -6 61 -20 137 -26 137 -4 0
-15 92 -24 205 -7 80 -12 125 -15 125 -8 0 -19 133 -26 320 -7 183 -6 187 9
213 5 6 6 12 2 12 -3 0 0 10 7 23 28 51 27 412 -1 482 -7 17 -14 44 -16 60 -7
69 -89 205 -182 303 -11 12 -14 21 -13 47 0 3 -6 18 -13 33 -8 15 -17 43 -21
61 -3 19 -36 85 -71 145 -91 154 -89 150 -103 159 -7 5 -24 27 -38 49 -14 22
-39 55 -54 72 -53 58 -70 79 -70 86 0 4 -32 39 -71 79 -96 96 -253 189 -324
191 -82 3 -117 10 -165 33 -106 50 -388 121 -542 138 -97 10 -344 20 -350 13z"/>
</g>
</svg>
